# xmcd
# 
# Track frame offsets:
#     150
#     13724
#     25338
#     35506
#     48684
#     59105
#     68276
#     78559
#     88516
#     99081
#     110991
#     120963
#     132749
#     141145
#     151557
#     160154
#     172024
#     181397
#     192388
#     201870
#     212123
#     223404
#     233742
#     243476
#     254755
#     265560
#     274833
#     285053
#     294912
#     305031
#     314463
# 
# Disc length: 4332
# 
# Revision: 1
# Processed by: cddbd v1.5.2PL0 Copyright (c) Steve Scherf et al.
# Submitted via: fre:ac v1.0.31
# 
DISCID=cd10ea1f
DTITLE=Skeeter Davis - The Complete RCA Singles As and Bs 1953-62 Disc 1
DYEAR=2016
DGENRE=Country
TTITLE0=The Davis Sisters - I Forgot More Than You'll Ever Know
TTITLE1=The Davis Sisters - Rock-A-Bye Boogie
TTITLE2=The Davis Sisters - You're Gone
TTITLE3=The Davis Sisters - Sorrow And Pain
TTITLE4=The Davis Sisters - Takin' Time Out For Tears
TTITLE5=The Davis Sisters - Gotta Git A-Goin
TTITLE6=The Davis Sisters - You Weren't Ashamed To Kiss Me Last Night
TTITLE7=The Davis Sisters - Foggy Mountain Top
TTITLE8=The Davis Sisters - Show Me
TTITLE9=The Davis Sisters - Just Like Me
TTITLE10=The Davis Sisters - The Christmas Boogie
TTITLE11=The Davis Sisters - Tomorrow I'll Cry Over You
TTITLE12=The Davis Sisters - Everlovin
TTITLE13=The Davis Sisters - Tomorrow's Just Another Day To Cry
TTITLE14=The Davis Sisters - Fiddle Diddle Boogie
TTITLE15=The Davis Sisters - Come Back To Me
TTITLE16=The Davis Sisters - I'll Get Him Back
TTITLE17=The Davis Sisters - I've Closed The Door
TTITLE18=The Davis Sisters - Baby Be Mine
TTITLE19=The Davis Sisters - It's The Girl Who Gets The Blame
TTITLE20=The Davis Sisters - Don't Take Him For Granted
TTITLE21=The Davis Sisters - Blues For Company
TTITLE22=The Davis Sisters - Lonely And Blue
TTITLE23=The Davis Sisters - Lying Brown Eyes
TTITLE24=Skeeter Davis - He Left His Heart with Me
TTITLE25=Skeeter Davis - Don't Let Your Lips Say Yes
TTITLE26=Skeeter Davis - Lost to a Geisha Girl
TTITLE27=Skeeter Davis - I'm Going Steady with a Heartache
TTITLE28=Skeeter Davis - Walk Softly Darling
TTITLE29=Skeeter Davis - I Need You All the Time
TTITLE30=Skeeter Davis - Wave Bye Bye
EXTD=
EXTT0=
EXTT1=
EXTT2=
EXTT3=
EXTT4=
EXTT5=
EXTT6=
EXTT7=
EXTT8=
EXTT9=
EXTT10=
EXTT11=
EXTT12=
EXTT13=
EXTT14=
EXTT15=
EXTT16=
EXTT17=
EXTT18=
EXTT19=
EXTT20=
EXTT21=
EXTT22=
EXTT23=
EXTT24=
EXTT25=
EXTT26=
EXTT27=
EXTT28=
EXTT29=
EXTT30=
PLAYORDER=
